HIERARCHY
ROOT SpineBase
{
  OFFSET 0.000000 0.000000 0.000000
  CHANNELS 6 Xposition Yposition Zposition Zrotation Xrotation Yrotation
  JOINT SpineMid
  {
    OFFSET 0.000000 36.861557 0.000000
    CHANNELS 3 Zrotation Xrotation Yrotation
    JOINT SpineShoulder
    {
      OFFSET 0.143982 27.342059 -0.920496
      CHANNELS 3 Zrotation Xrotation Yrotation
      JOINT Neck
      {
        OFFSET 0.096623 9.026028 -0.689174
        CHANNELS 3 Zrotation Xrotation Yrotation
        JOINT Head
        {
          OFFSET 2.840940 10.899707 7.145097
          CHANNELS 3 Zrotation Xrotation Yrotation
          End Site
          {
            OFFSET 0 0 0
          }
        }
      }
      JOINT ShoulderLeft
      {
        OFFSET 2.066927 -5.586264 -14.230939
        CHANNELS 3 Zrotation Xrotation Yrotation
        JOINT ElbowLeft
        {
          OFFSET 11.293792 -23.996077 -6.479207
          CHANNELS 3 Zrotation Xrotation Yrotation
          JOINT WristLeft
          {
            OFFSET 11.009100 -23.433484 0.966592
            CHANNELS 3 Zrotation Xrotation Yrotation
            JOINT HandLeft
            {
              OFFSET 1.683044 -11.004963 2.539271
              CHANNELS 3 Zrotation Xrotation Yrotation
              JOINT HandTipLeft
              {
                OFFSET 4.061090 -6.408882 0.506800
                CHANNELS 3 Zrotation Xrotation Yrotation
                End Site
                {
                  OFFSET 0 0 0
                }
              }
              JOINT ThumbLeft
              {
                OFFSET -4.368601 -1.794963 -2.102577
                CHANNELS 3 Zrotation Xrotation Yrotation
                End Site
                {
                  OFFSET 0 0 0
                }
              }
            }
          }
        }
      }
      JOINT ShoulderRight
      {
        OFFSET 7.279060 -11.154984 -14.058926
        CHANNELS 3 Zrotation Xrotation Yrotation
        JOINT ElbowRight
        {
          OFFSET 7.944302 -24.827611 -8.030069
          CHANNELS 3 Zrotation Xrotation Yrotation
          JOINT WristRight
          {
            OFFSET -6.255910 -18.171520 -4.797091
            CHANNELS 3 Zrotation Xrotation Yrotation
            JOINT HandRight
            {
              OFFSET -0.557426 -4.960453 7.948460
              CHANNELS 3 Zrotation Xrotation Yrotation
              JOINT HandTipRight
              {
                OFFSET -1.226698 -4.072455 -1.018908
                CHANNELS 3 Zrotation Xrotation Yrotation
                End Site
                {
                  OFFSET 0 0 0
                }
              }
              JOINT ThumbRight
              {
                OFFSET 1.429317 -2.675689 -3.367511
                CHANNELS 3 Zrotation Xrotation Yrotation
                End Site
                {
                  OFFSET 0 0 0
                }
              }
            }
          }
        }
      }
    }
  }
  JOINT HipLeft
  {
    OFFSET -2.642392 1.527068 -6.820566
    CHANNELS 3 Zrotation Xrotation Yrotation
    JOINT KneeLeft
    {
      OFFSET 22.184498 -36.456211 -4.227545
      CHANNELS 3 Zrotation Xrotation Yrotation
      JOINT AnkleLeft
      {
        OFFSET -5.145096 -37.082858 -0.170583
        CHANNELS 3 Zrotation Xrotation Yrotation
        JOINT FootLeft
        {
          OFFSET 12.698342 -1.685327 -5.903697
          CHANNELS 3 Zrotation Xrotation Yrotation
          End Site
          {
            OFFSET 0 0 0
          }
        }
      }
    }
  }
  JOINT HipRight
  {
    OFFSET 3.831387 0.941118 -1.549731
    CHANNELS 3 Zrotation Xrotation Yrotation
    JOINT KneeRight
    {
      OFFSET 5.321283 -39.087422 -1.166026
      CHANNELS 3 Zrotation Xrotation Yrotation
      JOINT AnkleRight
      {
        OFFSET 14.447558 -28.605135 -13.821900
        CHANNELS 3 Zrotation Xrotation Yrotation
        JOINT FootRight
        {
          OFFSET 3.639052 -2.405648 -16.526493
          CHANNELS 3 Zrotation Xrotation Yrotation
          End Site
          {
            OFFSET 0 0 0
          }
        }
      }
    }
  }
}
MOTION
Frames: 12
Frame Time: 0.033333
-37.635411 80.708197 334.572401 -0.000000 0.000000 -39.151866 0.000000 0.000000 39.151866 -0.000000 0.000000 0.000000 -0.000000 0.000000 0.000000 0.000000 0.000000 0.000000 -0.000000 0.000000 0.000000 -0.000000 0.000000 0.000000 -0.000000 0.000000 0.000000 -0.000000 0.000000 0.000000 0.000000 0.000000 0.000000 0.000000 0.000000 0.000000 -0.000000 0.000000 0.000000 -0.000000 0.000000 0.000000 -0.000000 0.000000 0.000000 -0.000000 0.000000 0.000000 0.000000 0.000000 0.000000 0.000000 0.000000 0.000000 0.000000 0.000000 39.151866 -0.000000 0.000000 0.000000 -0.000000 0.000000 0.000000 0.000000 0.000000 0.000000 0.000000 0.000000 39.151866 -0.000000 0.000000 0.000000 -0.000000 0.000000 0.000000 0.000000 0.000000 0.000000
-37.502039 80.681509 334.674059 0.036191 0.068535 -39.145612 0.015198 -0.076000 39.145601 -0.000000 0.000000 0.000000 -0.000000 0.000000 0.000000 0.000000 0.000000 0.000000 -0.000000 0.000000 0.000000 -0.000000 0.000000 0.000000 -0.000000 0.000000 0.000000 0.185916 -1.144463 -0.707378 0.000000 0.000000 0.000000 0.000000 0.000000 0.000000 -1.075290 0.902885 0.645463 -0.344247 -0.732777 -0.334882 2.494576 -2.278438 1.647414 -1.483830 3.287681 -2.112457 0.000000 0.000000 0.000000 0.000000 0.000000 0.000000 0.015198 -0.076000 39.145601 -1.050574 -1.507311 0.199916 0.582069 1.761297 3.463921 0.000000 0.000000 0.000000 -0.636034 -2.433232 38.997451 4.100753 3.030470 -0.178461 -2.850547 -3.381913 2.939360 0.000000 0.000000 0.000000
-37.382195 80.665201 334.764006 0.067152 0.136155 -39.182960 0.033971 -0.147965 39.182924 -0.000000 0.000000 0.000000 -0.000000 0.000000 0.000000 0.000000 0.000000 0.000000 -0.000000 0.000000 0.000000 -0.000000 0.000000 0.000000 -0.000000 0.000000 0.000000 0.409621 -1.971876 -1.205776 0.000000 0.000000 0.000000 0.000000 0.000000 0.000000 -1.768828 1.480677 1.069595 -0.579948 -1.201063 -0.561131 4.158805 -3.784935 2.779830 -2.323894 5.818965 -3.585994 0.000000 0.000000 0.000000 0.000000 0.000000 0.000000 0.033971 -0.147965 39.182924 -2.087936 -2.927736 0.361670 1.326768 3.427299 6.395777 0.000000 0.000000 0.000000 -1.158658 -4.429344 38.892694 7.415453 5.481161 -0.462977 -5.372313 -7.168945 6.494702 0.000000 0.000000 0.000000
-37.275879 80.659272 334.842241 0.092902 0.202892 -39.266232 0.056489 -0.215882 39.266174 -0.000000 0.000000 0.000000 -0.000000 0.000000 0.000000 0.000000 0.000000 0.000000 -0.000000 0.000000 0.000000 -0.361075 -0.832196 -0.408972 -0.363836 1.642889 0.379061 1.396762 -3.327737 -1.462039 0.000000 0.000000 0.000000 0.000000 0.000000 0.000000 -2.078987 1.746269 1.264043 -0.700751 -1.417252 -0.665202 5.029548 -4.645789 3.473601 -2.661167 7.693510 -4.581038 0.000000 0.000000 0.000000 0.000000 0.000000 0.000000 -0.708590 -0.612842 39.466977 -2.284643 -4.425974 0.272738 2.228410 5.009732 8.796140 0.000000 0.000000 0.000000 -1.565962 -6.006822 38.850987 9.996244 7.387810 -0.763402 -7.585021 -11.786499 11.128909 0.000000 0.000000 0.000000
-37.183091 80.663722 334.908765 0.113455 0.268779 -39.396946 0.082917 -0.279713 39.396883 -0.000000 0.000000 0.000000 -0.000000 0.000000 0.000000 0.000000 0.000000 0.000000 -0.000000 0.000000 0.000000 -0.468413 -0.997831 -0.492962 -0.416573 1.962854 0.455265 1.879428 -3.762882 -1.578806 0.000000 0.000000 0.000000 0.000000 0.000000 0.000000 -2.005293 1.705846 1.225290 -0.703859 -1.387442 -0.640941 5.128616 -4.930627 3.772033 -2.571147 8.979735 -5.181230 0.000000 0.000000 0.000000 0.000000 0.000000 0.000000 -0.847516 -0.789467 39.629979 -3.103871 -5.676931 0.326185 3.280400 6.516871 10.678542 0.000000 0.000000 0.000000 -1.857332 -7.182901 38.882303 11.879737 8.786962 -1.015475 -9.353200 -17.946864 17.633623 0.000000 0.000000 0.000000
-37.103831 80.678551 334.963577 0.128819 0.333849 -39.575703 0.113403 -0.339395 39.575664 -0.000000 0.000000 0.000000 -0.000000 0.000000 0.000000 0.000000 0.000000 0.000000 -0.000000 0.000000 0.000000 -0.569755 -1.110455 -0.551798 -0.416574 2.153495 0.505859 2.366540 -3.867699 -1.531892 0.000000 0.000000 0.000000 0.000000 0.000000 0.000000 -1.547715 1.358152 0.954002 -0.589792 -1.110637 -0.489037 4.459998 -4.663040 3.689238 -2.085101 9.713898 -5.413616 0.000000 0.000000 0.000000 0.000000 0.000000 0.000000 -0.937275 -0.952268 39.824407 -3.948832 -6.813187 0.367116 4.477004 7.953716 12.062421 0.000000 0.000000 0.000000 -2.033586 -7.971270 38.993285 13.090492 9.709411 -1.175533 -10.008197 -26.727735 27.460135 0.000000 0.000000 0.000000
-37.028812 80.701954 335.005614 0.150820 0.409829 -39.899594 0.147179 -0.411150 39.899583 -0.000000 0.000000 0.000000 -0.000000 0.000000 0.000000 0.000000 0.000000 0.000000 -0.000000 0.000000 0.000000 -0.602938 -1.015700 -0.508473 -1.224661 1.652187 0.219898 6.031346 -1.772466 0.024727 0.000000 0.000000 0.000000 0.000000 0.000000 0.000000 -0.741220 0.720863 0.475079 -0.368418 -0.599491 -0.228544 3.097677 -3.807612 3.277428 0.098503 10.265932 -5.956100 0.000000 0.000000 0.000000 0.000000 0.000000 0.000000 -1.003690 -1.161322 40.142682 -5.255990 -8.397364 0.419844 6.554323 9.843161 11.585271 0.000000 0.000000 0.000000 -1.830124 -7.140323 39.408379 11.570936 8.462351 -0.910816 -3.123996 -42.978128 51.746137 0.000000 0.000000 0.000000
-36.971671 80.741694 335.025736 0.163041 0.484692 -40.206549 0.188374 -0.475420 40.206641 -0.000000 0.000000 0.000000 -0.000000 0.000000 0.000000 0.000000 0.000000 0.000000 0.710571 0.463996 0.023546 -1.494866 -1.518776 -0.572609 -0.582839 1.614247 0.328175 6.470258 -2.223835 -0.291545 0.000000 0.000000 0.000000 0.000000 0.000000 0.000000 -0.000000 0.000000 0.000000 -0.000000 0.000000 0.000000 1.214932 -2.230474 2.156217 1.508307 9.907452 -5.273761 0.000000 0.000000 0.000000 0.000000 0.000000 0.000000 -1.000856 -1.376948 40.409961 -6.411803 -9.621438 0.467100 8.033344 11.538597 13.680392 0.000000 0.000000 0.000000 -1.797314 -7.283462 39.710289 11.572548 8.598801 -0.823387 17.110716 -56.198831 87.341998 0.000000 0.000000 0.000000
-36.938453 80.789917 335.026386 0.168319 0.547032 -40.548107 0.227722 -0.525089 40.548347 -0.000000 0.000000 0.000000 -0.000000 0.000000 0.000000 0.000000 0.000000 0.000000 0.848104 0.554564 0.027770 -1.637619 -1.757950 -0.651964 -0.917572 1.800034 0.338845 5.713336 -1.485509 0.124655 0.000000 0.000000 0.000000 0.000000 0.000000 0.000000 2.135180 -1.215831 -1.054365 -1.348529 1.454057 0.774539 -0.943027 -2.232418 0.296656 0.241292 12.094036 -3.027457 0.000000 0.000000 0.000000 0.000000 0.000000 0.000000 -0.949560 -1.577719 40.689961 -7.139709 -10.264497 0.522870 9.621775 12.636346 13.121769 0.000000 0.000000 0.000000 -1.732708 -7.421496 40.045629 11.579373 8.897804 -0.686829 38.645434 -59.260158 117.432096 0.000000 0.000000 0.000000
-36.929521 80.850508 335.031383 0.150386 0.601679 -40.851468 0.279811 -0.553481 40.852030 -0.000000 0.000000 0.000000 -0.000000 0.000000 0.000000 0.000000 0.000000 0.000000 0.956809 0.622684 0.029357 -1.761571 -1.744360 -0.618691 -0.859775 1.495461 0.269451 5.445588 -0.460112 0.581033 0.000000 0.000000 0.000000 0.000000 0.000000 0.000000 3.758510 -2.715052 -1.990042 -0.517980 2.534927 1.185630 -4.745008 0.706084 -1.491388 -0.781342 8.653442 0.208046 0.000000 0.000000 0.000000 0.000000 0.000000 0.000000 -0.843964 -1.704044 40.934083 -7.325432 -10.205425 0.579882 12.430629 13.834798 11.028033 0.000000 0.000000 0.000000 -1.870302 -8.490289 40.252869 13.162475 10.389862 -0.808272 49.079557 -58.960473 132.852882 0.000000 0.000000 0.000000
-36.930404 80.889679 335.078595 0.107779 0.621247 -40.909940 0.325392 -0.540080 40.910889 -0.000000 0.000000 0.000000 -0.909351 0.817772 0.386848 0.000000 0.000000 0.000000 1.045671 0.730018 0.054250 -1.944673 -1.698044 -0.581105 -0.087612 1.056368 0.292211 3.193515 0.212781 0.563846 0.000000 0.000000 0.000000 0.000000 0.000000 0.000000 5.088872 -5.026058 -3.031982 3.502108 3.418404 1.094349 -10.827904 8.405200 -1.964415 6.885607 -0.097816 1.231136 0.000000 0.000000 0.000000 0.000000 0.000000 0.000000 -0.645255 -1.413639 41.031617 -7.266203 -9.695870 0.522877 11.239504 12.293387 8.289489 0.000000 0.000000 0.000000 -1.584821 -7.307682 40.424588 11.291308 9.206988 -0.388987 49.764210 -58.917673 132.366743 0.000000 0.000000 0.000000
-36.937252 80.911778 335.201223 0.046628 0.561594 -40.323882 0.327869 -0.458329 40.324965 -0.000000 0.000000 0.000000 -1.373343 1.718168 0.466991 0.000000 0.000000 0.000000 1.134648 0.793087 0.058660 -2.076020 -1.620027 -0.524186 -0.328069 0.187727 0.044488 3.413854 1.865942 1.259429 0.000000 0.000000 0.000000 0.000000 0.000000 0.000000 6.168381 -6.782981 -3.809968 6.120214 4.231879 0.952268 -15.340226 14.386238 -2.533485 10.662685 -6.193456 3.650990 0.000000 0.000000 0.000000 0.000000 0.000000 0.000000 -0.549360 -0.922978 40.557820 -7.722881 -9.778341 0.365544 9.581507 11.468280 10.094675 0.000000 0.000000 0.000000 -1.715369 -7.116867 39.849172 11.586142 9.435280 -0.410640 57.686148 -57.008589 144.707649 0.000000 0.000000 0.000000
